<mxfile host="app.diagrams.net" modified="2024-02-17T11:58:35.619Z" agent="Mozilla/5.0 (X11; Linux x86_64; rv:122.0) Gecko/20100101 Firefox/122.0" etag="yuKjH3yKPDXega_LnQ9Z" version="23.1.5" type="device">
  <diagram name="Seite-1" id="3be5mNfJ36adj_SjDHY5">
    <mxGraphModel dx="819" dy="452" grid="1" gridSize="10" guides="1" tooltips="1" connect="1" arrows="1" fold="1" page="1" pageScale="1" pageWidth="827" pageHeight="1169" math="0" shadow="0">
      <root>
        <mxCell id="0" />
        <mxCell id="1" parent="0" />
        <mxCell id="PSC9y0dFStUSjlVrIaF2-4" value="" style="endArrow=classic;html=1;rounded=0;entryX=0;entryY=0;entryDx=0;entryDy=0;exitX=1;exitY=1;exitDx=0;exitDy=0;" edge="1" parent="1" source="PSC9y0dFStUSjlVrIaF2-6">
          <mxGeometry relative="1" as="geometry">
            <mxPoint x="120" y="200" as="sourcePoint" />
            <mxPoint x="159.1108355384588" y="235.0480209125252" as="targetPoint" />
          </mxGeometry>
        </mxCell>
        <mxCell id="PSC9y0dFStUSjlVrIaF2-6" value="" style="ellipse;whiteSpace=wrap;html=1;fillColor=#000000;" vertex="1" parent="1">
          <mxGeometry x="100" y="180" width="10" height="10" as="geometry" />
        </mxCell>
        <mxCell id="PSC9y0dFStUSjlVrIaF2-9" value="IDLE" style="swimlane;fontStyle=0;childLayout=stackLayout;horizontal=1;startSize=30;horizontalStack=0;resizeParent=1;resizeParentMax=0;resizeLast=0;collapsible=1;marginBottom=0;whiteSpace=wrap;html=1;" vertex="1" parent="1">
          <mxGeometry x="160" y="210" width="140" height="120" as="geometry" />
        </mxCell>
        <mxCell id="PSC9y0dFStUSjlVrIaF2-10" value="DISPLAY OFF" style="text;strokeColor=none;fillColor=none;align=left;verticalAlign=middle;spacingLeft=4;spacingRight=4;overflow=hidden;points=[[0,0.5],[1,0.5]];portConstraint=eastwest;rotatable=0;whiteSpace=wrap;html=1;" vertex="1" parent="PSC9y0dFStUSjlVrIaF2-9">
          <mxGeometry y="30" width="140" height="30" as="geometry" />
        </mxCell>
        <mxCell id="PSC9y0dFStUSjlVrIaF2-11" value="MOTOR OFF" style="text;strokeColor=none;fillColor=none;align=left;verticalAlign=middle;spacingLeft=4;spacingRight=4;overflow=hidden;points=[[0,0.5],[1,0.5]];portConstraint=eastwest;rotatable=0;whiteSpace=wrap;html=1;" vertex="1" parent="PSC9y0dFStUSjlVrIaF2-9">
          <mxGeometry y="60" width="140" height="30" as="geometry" />
        </mxCell>
        <mxCell id="PSC9y0dFStUSjlVrIaF2-12" value="LED_INDIC BLINK" style="text;strokeColor=none;fillColor=none;align=left;verticalAlign=middle;spacingLeft=4;spacingRight=4;overflow=hidden;points=[[0,0.5],[1,0.5]];portConstraint=eastwest;rotatable=0;whiteSpace=wrap;html=1;" vertex="1" parent="PSC9y0dFStUSjlVrIaF2-9">
          <mxGeometry y="90" width="140" height="30" as="geometry" />
        </mxCell>
        <mxCell id="PSC9y0dFStUSjlVrIaF2-13" value="TUNE_E1" style="swimlane;fontStyle=0;childLayout=stackLayout;horizontal=1;startSize=30;horizontalStack=0;resizeParent=1;resizeParentMax=0;resizeLast=0;collapsible=1;marginBottom=0;whiteSpace=wrap;html=1;" vertex="1" parent="1">
          <mxGeometry x="174" y="380" width="140" height="120" as="geometry" />
        </mxCell>
        <mxCell id="PSC9y0dFStUSjlVrIaF2-14" value="DISPLAY ON (show frequ of E1)" style="text;strokeColor=none;fillColor=none;align=left;verticalAlign=middle;spacingLeft=4;spacingRight=4;overflow=hidden;points=[[0,0.5],[1,0.5]];portConstraint=eastwest;rotatable=0;whiteSpace=wrap;html=1;" vertex="1" parent="PSC9y0dFStUSjlVrIaF2-13">
          <mxGeometry y="30" width="140" height="30" as="geometry" />
        </mxCell>
        <mxCell id="PSC9y0dFStUSjlVrIaF2-15" value="LED_L&amp;amp;R&amp;amp;M code" style="text;strokeColor=none;fillColor=none;align=left;verticalAlign=middle;spacingLeft=4;spacingRight=4;overflow=hidden;points=[[0,0.5],[1,0.5]];portConstraint=eastwest;rotatable=0;whiteSpace=wrap;html=1;" vertex="1" parent="PSC9y0dFStUSjlVrIaF2-13">
          <mxGeometry y="60" width="140" height="30" as="geometry" />
        </mxCell>
        <mxCell id="PSC9y0dFStUSjlVrIaF2-16" value="MOTOR ON" style="text;strokeColor=none;fillColor=none;align=left;verticalAlign=middle;spacingLeft=4;spacingRight=4;overflow=hidden;points=[[0,0.5],[1,0.5]];portConstraint=eastwest;rotatable=0;whiteSpace=wrap;html=1;" vertex="1" parent="PSC9y0dFStUSjlVrIaF2-13">
          <mxGeometry y="90" width="140" height="30" as="geometry" />
        </mxCell>
        <mxCell id="PSC9y0dFStUSjlVrIaF2-17" value="TUNE_A" style="swimlane;fontStyle=0;childLayout=stackLayout;horizontal=1;startSize=30;horizontalStack=0;resizeParent=1;resizeParentMax=0;resizeLast=0;collapsible=1;marginBottom=0;whiteSpace=wrap;html=1;" vertex="1" parent="1">
          <mxGeometry x="344" y="380" width="140" height="120" as="geometry">
            <mxRectangle x="344" y="380" width="90" height="30" as="alternateBounds" />
          </mxGeometry>
        </mxCell>
        <mxCell id="PSC9y0dFStUSjlVrIaF2-18" value="DISPLAY ON (show frequ of E1)" style="text;strokeColor=none;fillColor=none;align=left;verticalAlign=middle;spacingLeft=4;spacingRight=4;overflow=hidden;points=[[0,0.5],[1,0.5]];portConstraint=eastwest;rotatable=0;whiteSpace=wrap;html=1;" vertex="1" parent="PSC9y0dFStUSjlVrIaF2-17">
          <mxGeometry y="30" width="140" height="30" as="geometry" />
        </mxCell>
        <mxCell id="PSC9y0dFStUSjlVrIaF2-19" value="LED_L&amp;amp;R&amp;amp;M code" style="text;strokeColor=none;fillColor=none;align=left;verticalAlign=middle;spacingLeft=4;spacingRight=4;overflow=hidden;points=[[0,0.5],[1,0.5]];portConstraint=eastwest;rotatable=0;whiteSpace=wrap;html=1;" vertex="1" parent="PSC9y0dFStUSjlVrIaF2-17">
          <mxGeometry y="60" width="140" height="30" as="geometry" />
        </mxCell>
        <mxCell id="PSC9y0dFStUSjlVrIaF2-20" value="MOTOR ON" style="text;strokeColor=none;fillColor=none;align=left;verticalAlign=middle;spacingLeft=4;spacingRight=4;overflow=hidden;points=[[0,0.5],[1,0.5]];portConstraint=eastwest;rotatable=0;whiteSpace=wrap;html=1;" vertex="1" parent="PSC9y0dFStUSjlVrIaF2-17">
          <mxGeometry y="90" width="140" height="30" as="geometry" />
        </mxCell>
        <mxCell id="PSC9y0dFStUSjlVrIaF2-21" value="TUNE_D" style="swimlane;fontStyle=0;childLayout=stackLayout;horizontal=1;startSize=30;horizontalStack=0;resizeParent=1;resizeParentMax=0;resizeLast=0;collapsible=1;marginBottom=0;whiteSpace=wrap;html=1;" vertex="1" parent="1">
          <mxGeometry x="514" y="380" width="140" height="120" as="geometry" />
        </mxCell>
        <mxCell id="PSC9y0dFStUSjlVrIaF2-22" value="DISPLAY ON (show frequ of E1)" style="text;strokeColor=none;fillColor=none;align=left;verticalAlign=middle;spacingLeft=4;spacingRight=4;overflow=hidden;points=[[0,0.5],[1,0.5]];portConstraint=eastwest;rotatable=0;whiteSpace=wrap;html=1;" vertex="1" parent="PSC9y0dFStUSjlVrIaF2-21">
          <mxGeometry y="30" width="140" height="30" as="geometry" />
        </mxCell>
        <mxCell id="PSC9y0dFStUSjlVrIaF2-23" value="LED_L&amp;amp;R&amp;amp;M code" style="text;strokeColor=none;fillColor=none;align=left;verticalAlign=middle;spacingLeft=4;spacingRight=4;overflow=hidden;points=[[0,0.5],[1,0.5]];portConstraint=eastwest;rotatable=0;whiteSpace=wrap;html=1;" vertex="1" parent="PSC9y0dFStUSjlVrIaF2-21">
          <mxGeometry y="60" width="140" height="30" as="geometry" />
        </mxCell>
        <mxCell id="PSC9y0dFStUSjlVrIaF2-24" value="MOTOR ON" style="text;strokeColor=none;fillColor=none;align=left;verticalAlign=middle;spacingLeft=4;spacingRight=4;overflow=hidden;points=[[0,0.5],[1,0.5]];portConstraint=eastwest;rotatable=0;whiteSpace=wrap;html=1;" vertex="1" parent="PSC9y0dFStUSjlVrIaF2-21">
          <mxGeometry y="90" width="140" height="30" as="geometry" />
        </mxCell>
        <mxCell id="PSC9y0dFStUSjlVrIaF2-25" value="TUNE_G" style="swimlane;fontStyle=0;childLayout=stackLayout;horizontal=1;startSize=30;horizontalStack=0;resizeParent=1;resizeParentMax=0;resizeLast=0;collapsible=1;marginBottom=0;whiteSpace=wrap;html=1;" vertex="1" parent="1">
          <mxGeometry x="174" y="530" width="140" height="120" as="geometry" />
        </mxCell>
        <mxCell id="PSC9y0dFStUSjlVrIaF2-26" value="DISPLAY ON (show frequ of E1)" style="text;strokeColor=none;fillColor=none;align=left;verticalAlign=middle;spacingLeft=4;spacingRight=4;overflow=hidden;points=[[0,0.5],[1,0.5]];portConstraint=eastwest;rotatable=0;whiteSpace=wrap;html=1;" vertex="1" parent="PSC9y0dFStUSjlVrIaF2-25">
          <mxGeometry y="30" width="140" height="30" as="geometry" />
        </mxCell>
        <mxCell id="PSC9y0dFStUSjlVrIaF2-27" value="LED_L&amp;amp;R&amp;amp;M code" style="text;strokeColor=none;fillColor=none;align=left;verticalAlign=middle;spacingLeft=4;spacingRight=4;overflow=hidden;points=[[0,0.5],[1,0.5]];portConstraint=eastwest;rotatable=0;whiteSpace=wrap;html=1;" vertex="1" parent="PSC9y0dFStUSjlVrIaF2-25">
          <mxGeometry y="60" width="140" height="30" as="geometry" />
        </mxCell>
        <mxCell id="PSC9y0dFStUSjlVrIaF2-28" value="MOTOR ON" style="text;strokeColor=none;fillColor=none;align=left;verticalAlign=middle;spacingLeft=4;spacingRight=4;overflow=hidden;points=[[0,0.5],[1,0.5]];portConstraint=eastwest;rotatable=0;whiteSpace=wrap;html=1;" vertex="1" parent="PSC9y0dFStUSjlVrIaF2-25">
          <mxGeometry y="90" width="140" height="30" as="geometry" />
        </mxCell>
        <mxCell id="PSC9y0dFStUSjlVrIaF2-29" value="TUNE_H" style="swimlane;fontStyle=0;childLayout=stackLayout;horizontal=1;startSize=30;horizontalStack=0;resizeParent=1;resizeParentMax=0;resizeLast=0;collapsible=1;marginBottom=0;whiteSpace=wrap;html=1;" vertex="1" parent="1">
          <mxGeometry x="344" y="530" width="140" height="120" as="geometry" />
        </mxCell>
        <mxCell id="PSC9y0dFStUSjlVrIaF2-30" value="DISPLAY ON (show frequ of E1)" style="text;strokeColor=none;fillColor=none;align=left;verticalAlign=middle;spacingLeft=4;spacingRight=4;overflow=hidden;points=[[0,0.5],[1,0.5]];portConstraint=eastwest;rotatable=0;whiteSpace=wrap;html=1;" vertex="1" parent="PSC9y0dFStUSjlVrIaF2-29">
          <mxGeometry y="30" width="140" height="30" as="geometry" />
        </mxCell>
        <mxCell id="PSC9y0dFStUSjlVrIaF2-31" value="LED_L&amp;amp;R&amp;amp;M code" style="text;strokeColor=none;fillColor=none;align=left;verticalAlign=middle;spacingLeft=4;spacingRight=4;overflow=hidden;points=[[0,0.5],[1,0.5]];portConstraint=eastwest;rotatable=0;whiteSpace=wrap;html=1;" vertex="1" parent="PSC9y0dFStUSjlVrIaF2-29">
          <mxGeometry y="60" width="140" height="30" as="geometry" />
        </mxCell>
        <mxCell id="PSC9y0dFStUSjlVrIaF2-32" value="MOTOR ON" style="text;strokeColor=none;fillColor=none;align=left;verticalAlign=middle;spacingLeft=4;spacingRight=4;overflow=hidden;points=[[0,0.5],[1,0.5]];portConstraint=eastwest;rotatable=0;whiteSpace=wrap;html=1;" vertex="1" parent="PSC9y0dFStUSjlVrIaF2-29">
          <mxGeometry y="90" width="140" height="30" as="geometry" />
        </mxCell>
        <mxCell id="PSC9y0dFStUSjlVrIaF2-33" value="TUNE_E2" style="swimlane;fontStyle=0;childLayout=stackLayout;horizontal=1;startSize=30;horizontalStack=0;resizeParent=1;resizeParentMax=0;resizeLast=0;collapsible=1;marginBottom=0;whiteSpace=wrap;html=1;" vertex="1" parent="1">
          <mxGeometry x="514" y="530" width="140" height="120" as="geometry" />
        </mxCell>
        <mxCell id="PSC9y0dFStUSjlVrIaF2-34" value="DISPLAY ON (show frequ of E1)" style="text;strokeColor=none;fillColor=none;align=left;verticalAlign=middle;spacingLeft=4;spacingRight=4;overflow=hidden;points=[[0,0.5],[1,0.5]];portConstraint=eastwest;rotatable=0;whiteSpace=wrap;html=1;" vertex="1" parent="PSC9y0dFStUSjlVrIaF2-33">
          <mxGeometry y="30" width="140" height="30" as="geometry" />
        </mxCell>
        <mxCell id="PSC9y0dFStUSjlVrIaF2-35" value="LED_L&amp;amp;R&amp;amp;M code" style="text;strokeColor=none;fillColor=none;align=left;verticalAlign=middle;spacingLeft=4;spacingRight=4;overflow=hidden;points=[[0,0.5],[1,0.5]];portConstraint=eastwest;rotatable=0;whiteSpace=wrap;html=1;" vertex="1" parent="PSC9y0dFStUSjlVrIaF2-33">
          <mxGeometry y="60" width="140" height="30" as="geometry" />
        </mxCell>
        <mxCell id="PSC9y0dFStUSjlVrIaF2-36" value="MOTOR ON" style="text;strokeColor=none;fillColor=none;align=left;verticalAlign=middle;spacingLeft=4;spacingRight=4;overflow=hidden;points=[[0,0.5],[1,0.5]];portConstraint=eastwest;rotatable=0;whiteSpace=wrap;html=1;" vertex="1" parent="PSC9y0dFStUSjlVrIaF2-33">
          <mxGeometry y="90" width="140" height="30" as="geometry" />
        </mxCell>
        <mxCell id="PSC9y0dFStUSjlVrIaF2-37" value="" style="endArrow=classic;html=1;rounded=0;entryX=0.5;entryY=0;entryDx=0;entryDy=0;exitX=0.579;exitY=0.99;exitDx=0;exitDy=0;exitPerimeter=0;" edge="1" parent="1" source="PSC9y0dFStUSjlVrIaF2-12" target="PSC9y0dFStUSjlVrIaF2-13">
          <mxGeometry relative="1" as="geometry">
            <mxPoint x="200" y="340" as="sourcePoint" />
            <mxPoint x="240" y="360" as="targetPoint" />
          </mxGeometry>
        </mxCell>
        <mxCell id="PSC9y0dFStUSjlVrIaF2-38" value="Bm" style="edgeLabel;resizable=0;html=1;;align=center;verticalAlign=middle;" connectable="0" vertex="1" parent="PSC9y0dFStUSjlVrIaF2-37">
          <mxGeometry relative="1" as="geometry" />
        </mxCell>
        <mxCell id="PSC9y0dFStUSjlVrIaF2-39" value="Br" style="endArrow=classic;html=1;rounded=0;entryX=0;entryY=0.25;entryDx=0;entryDy=0;exitX=1.005;exitY=-0.029;exitDx=0;exitDy=0;exitPerimeter=0;" edge="1" parent="1" source="PSC9y0dFStUSjlVrIaF2-14" target="PSC9y0dFStUSjlVrIaF2-17">
          <mxGeometry relative="1" as="geometry">
            <mxPoint x="90" y="450" as="sourcePoint" />
            <mxPoint x="150" y="450" as="targetPoint" />
          </mxGeometry>
        </mxCell>
        <mxCell id="PSC9y0dFStUSjlVrIaF2-40" value="Br" style="edgeLabel;resizable=0;html=1;;align=center;verticalAlign=middle;" connectable="0" vertex="1" parent="PSC9y0dFStUSjlVrIaF2-39">
          <mxGeometry relative="1" as="geometry" />
        </mxCell>
        <mxCell id="PSC9y0dFStUSjlVrIaF2-41" value="Br" style="endArrow=classic;html=1;rounded=0;entryX=0;entryY=0.25;entryDx=0;entryDy=0;exitX=1.005;exitY=-0.029;exitDx=0;exitDy=0;exitPerimeter=0;" edge="1" parent="1">
          <mxGeometry relative="1" as="geometry">
            <mxPoint x="484" y="410" as="sourcePoint" />
            <mxPoint x="513" y="411" as="targetPoint" />
          </mxGeometry>
        </mxCell>
        <mxCell id="PSC9y0dFStUSjlVrIaF2-42" value="Br" style="edgeLabel;resizable=0;html=1;;align=center;verticalAlign=middle;" connectable="0" vertex="1" parent="PSC9y0dFStUSjlVrIaF2-41">
          <mxGeometry relative="1" as="geometry" />
        </mxCell>
        <mxCell id="PSC9y0dFStUSjlVrIaF2-43" value="Br" style="endArrow=classic;html=1;rounded=0;entryX=0;entryY=0.25;entryDx=0;entryDy=0;exitX=1.005;exitY=-0.029;exitDx=0;exitDy=0;exitPerimeter=0;" edge="1" parent="1">
          <mxGeometry relative="1" as="geometry">
            <mxPoint x="314" y="559" as="sourcePoint" />
            <mxPoint x="343" y="560" as="targetPoint" />
          </mxGeometry>
        </mxCell>
        <mxCell id="PSC9y0dFStUSjlVrIaF2-44" value="Br" style="edgeLabel;resizable=0;html=1;;align=center;verticalAlign=middle;" connectable="0" vertex="1" parent="PSC9y0dFStUSjlVrIaF2-43">
          <mxGeometry relative="1" as="geometry" />
        </mxCell>
        <mxCell id="PSC9y0dFStUSjlVrIaF2-45" value="Br" style="endArrow=classic;html=1;rounded=0;entryX=0;entryY=0.25;entryDx=0;entryDy=0;exitX=1.005;exitY=-0.029;exitDx=0;exitDy=0;exitPerimeter=0;" edge="1" parent="1">
          <mxGeometry relative="1" as="geometry">
            <mxPoint x="485" y="560" as="sourcePoint" />
            <mxPoint x="514" y="561" as="targetPoint" />
          </mxGeometry>
        </mxCell>
        <mxCell id="PSC9y0dFStUSjlVrIaF2-46" value="Br" style="edgeLabel;resizable=0;html=1;;align=center;verticalAlign=middle;" connectable="0" vertex="1" parent="PSC9y0dFStUSjlVrIaF2-45">
          <mxGeometry relative="1" as="geometry" />
        </mxCell>
        <mxCell id="PSC9y0dFStUSjlVrIaF2-47" value="Br" style="endArrow=classic;html=1;rounded=0;entryX=0;entryY=0.25;entryDx=0;entryDy=0;exitX=1.005;exitY=-0.029;exitDx=0;exitDy=0;exitPerimeter=0;" edge="1" parent="1">
          <mxGeometry relative="1" as="geometry">
            <mxPoint x="145" y="560" as="sourcePoint" />
            <mxPoint x="174" y="561" as="targetPoint" />
          </mxGeometry>
        </mxCell>
        <mxCell id="PSC9y0dFStUSjlVrIaF2-48" value="Br" style="edgeLabel;resizable=0;html=1;;align=center;verticalAlign=middle;" connectable="0" vertex="1" parent="PSC9y0dFStUSjlVrIaF2-47">
          <mxGeometry relative="1" as="geometry" />
        </mxCell>
        <mxCell id="PSC9y0dFStUSjlVrIaF2-49" value="Br" style="endArrow=classic;html=1;rounded=0;entryX=0;entryY=0.25;entryDx=0;entryDy=0;exitX=1.005;exitY=-0.029;exitDx=0;exitDy=0;exitPerimeter=0;" edge="1" parent="1">
          <mxGeometry relative="1" as="geometry">
            <mxPoint x="654" y="410" as="sourcePoint" />
            <mxPoint x="683" y="411" as="targetPoint" />
          </mxGeometry>
        </mxCell>
        <mxCell id="PSC9y0dFStUSjlVrIaF2-50" value="Br" style="edgeLabel;resizable=0;html=1;;align=center;verticalAlign=middle;" connectable="0" vertex="1" parent="PSC9y0dFStUSjlVrIaF2-49">
          <mxGeometry relative="1" as="geometry" />
        </mxCell>
        <mxCell id="PSC9y0dFStUSjlVrIaF2-52" value="" style="endArrow=classic;html=1;rounded=0;" edge="1" parent="1">
          <mxGeometry relative="1" as="geometry">
            <mxPoint x="514" y="600" as="sourcePoint" />
            <mxPoint x="484" y="600" as="targetPoint" />
          </mxGeometry>
        </mxCell>
        <mxCell id="PSC9y0dFStUSjlVrIaF2-53" value="Bl" style="edgeLabel;resizable=0;html=1;;align=center;verticalAlign=middle;" connectable="0" vertex="1" parent="PSC9y0dFStUSjlVrIaF2-52">
          <mxGeometry relative="1" as="geometry" />
        </mxCell>
        <mxCell id="PSC9y0dFStUSjlVrIaF2-54" value="" style="endArrow=classic;html=1;rounded=0;" edge="1" parent="1">
          <mxGeometry relative="1" as="geometry">
            <mxPoint x="344" y="600" as="sourcePoint" />
            <mxPoint x="314" y="600" as="targetPoint" />
          </mxGeometry>
        </mxCell>
        <mxCell id="PSC9y0dFStUSjlVrIaF2-55" value="Bl" style="edgeLabel;resizable=0;html=1;;align=center;verticalAlign=middle;" connectable="0" vertex="1" parent="PSC9y0dFStUSjlVrIaF2-54">
          <mxGeometry relative="1" as="geometry" />
        </mxCell>
        <mxCell id="PSC9y0dFStUSjlVrIaF2-56" value="" style="endArrow=classic;html=1;rounded=0;" edge="1" parent="1">
          <mxGeometry relative="1" as="geometry">
            <mxPoint x="174" y="600" as="sourcePoint" />
            <mxPoint x="144" y="600" as="targetPoint" />
          </mxGeometry>
        </mxCell>
        <mxCell id="PSC9y0dFStUSjlVrIaF2-57" value="Bl" style="edgeLabel;resizable=0;html=1;;align=center;verticalAlign=middle;" connectable="0" vertex="1" parent="PSC9y0dFStUSjlVrIaF2-56">
          <mxGeometry relative="1" as="geometry" />
        </mxCell>
        <mxCell id="PSC9y0dFStUSjlVrIaF2-58" value="" style="endArrow=classic;html=1;rounded=0;" edge="1" parent="1">
          <mxGeometry relative="1" as="geometry">
            <mxPoint x="684" y="450" as="sourcePoint" />
            <mxPoint x="654" y="450" as="targetPoint" />
          </mxGeometry>
        </mxCell>
        <mxCell id="PSC9y0dFStUSjlVrIaF2-59" value="Bl" style="edgeLabel;resizable=0;html=1;;align=center;verticalAlign=middle;" connectable="0" vertex="1" parent="PSC9y0dFStUSjlVrIaF2-58">
          <mxGeometry relative="1" as="geometry" />
        </mxCell>
        <mxCell id="PSC9y0dFStUSjlVrIaF2-60" value="" style="endArrow=classic;html=1;rounded=0;" edge="1" parent="1">
          <mxGeometry relative="1" as="geometry">
            <mxPoint x="514" y="450" as="sourcePoint" />
            <mxPoint x="484" y="450" as="targetPoint" />
          </mxGeometry>
        </mxCell>
        <mxCell id="PSC9y0dFStUSjlVrIaF2-61" value="Bl" style="edgeLabel;resizable=0;html=1;;align=center;verticalAlign=middle;" connectable="0" vertex="1" parent="PSC9y0dFStUSjlVrIaF2-60">
          <mxGeometry relative="1" as="geometry" />
        </mxCell>
        <mxCell id="PSC9y0dFStUSjlVrIaF2-62" value="" style="endArrow=classic;html=1;rounded=0;" edge="1" parent="1">
          <mxGeometry relative="1" as="geometry">
            <mxPoint x="344" y="450" as="sourcePoint" />
            <mxPoint x="314" y="450" as="targetPoint" />
          </mxGeometry>
        </mxCell>
        <mxCell id="PSC9y0dFStUSjlVrIaF2-63" value="Bl" style="edgeLabel;resizable=0;html=1;;align=center;verticalAlign=middle;" connectable="0" vertex="1" parent="PSC9y0dFStUSjlVrIaF2-62">
          <mxGeometry relative="1" as="geometry" />
        </mxCell>
        <mxCell id="PSC9y0dFStUSjlVrIaF2-64" value="" style="endArrow=classic;html=1;rounded=0;" edge="1" parent="1" target="PSC9y0dFStUSjlVrIaF2-66">
          <mxGeometry relative="1" as="geometry">
            <mxPoint x="510" y="360" as="sourcePoint" />
            <mxPoint x="440" y="290" as="targetPoint" />
          </mxGeometry>
        </mxCell>
        <mxCell id="PSC9y0dFStUSjlVrIaF2-65" value="Bl &amp;amp;&amp;amp; Br" style="edgeLabel;resizable=0;html=1;;align=center;verticalAlign=middle;" connectable="0" vertex="1" parent="PSC9y0dFStUSjlVrIaF2-64">
          <mxGeometry relative="1" as="geometry" />
        </mxCell>
        <mxCell id="PSC9y0dFStUSjlVrIaF2-66" value="Settings" style="swimlane;fontStyle=0;childLayout=stackLayout;horizontal=1;startSize=30;horizontalStack=0;resizeParent=1;resizeParentMax=0;resizeLast=0;collapsible=1;marginBottom=0;whiteSpace=wrap;html=1;" vertex="1" parent="1">
          <mxGeometry x="440" y="170" width="140" height="120" as="geometry" />
        </mxCell>
        <mxCell id="PSC9y0dFStUSjlVrIaF2-67" value="ALL LEDS ON" style="text;strokeColor=none;fillColor=none;align=left;verticalAlign=middle;spacingLeft=4;spacingRight=4;overflow=hidden;points=[[0,0.5],[1,0.5]];portConstraint=eastwest;rotatable=0;whiteSpace=wrap;html=1;" vertex="1" parent="PSC9y0dFStUSjlVrIaF2-66">
          <mxGeometry y="30" width="140" height="30" as="geometry" />
        </mxCell>
        <mxCell id="PSC9y0dFStUSjlVrIaF2-68" value="MOTOR OFF" style="text;strokeColor=none;fillColor=none;align=left;verticalAlign=middle;spacingLeft=4;spacingRight=4;overflow=hidden;points=[[0,0.5],[1,0.5]];portConstraint=eastwest;rotatable=0;whiteSpace=wrap;html=1;" vertex="1" parent="PSC9y0dFStUSjlVrIaF2-66">
          <mxGeometry y="60" width="140" height="30" as="geometry" />
        </mxCell>
        <mxCell id="PSC9y0dFStUSjlVrIaF2-69" value="DISPLAY Settings" style="text;strokeColor=none;fillColor=none;align=left;verticalAlign=middle;spacingLeft=4;spacingRight=4;overflow=hidden;points=[[0,0.5],[1,0.5]];portConstraint=eastwest;rotatable=0;whiteSpace=wrap;html=1;" vertex="1" parent="PSC9y0dFStUSjlVrIaF2-66">
          <mxGeometry y="90" width="140" height="30" as="geometry" />
        </mxCell>
        <mxCell id="PSC9y0dFStUSjlVrIaF2-70" value="" style="endArrow=classic;html=1;rounded=0;exitX=0.701;exitY=1.086;exitDx=0;exitDy=0;exitPerimeter=0;" edge="1" parent="1" source="PSC9y0dFStUSjlVrIaF2-69">
          <mxGeometry relative="1" as="geometry">
            <mxPoint x="390" y="400" as="sourcePoint" />
            <mxPoint x="540" y="360" as="targetPoint" />
          </mxGeometry>
        </mxCell>
        <mxCell id="PSC9y0dFStUSjlVrIaF2-71" value="Bl &amp;amp;&amp;amp; Br" style="edgeLabel;resizable=0;html=1;;align=center;verticalAlign=middle;" connectable="0" vertex="1" parent="PSC9y0dFStUSjlVrIaF2-70">
          <mxGeometry relative="1" as="geometry" />
        </mxCell>
      </root>
    </mxGraphModel>
  </diagram>
</mxfile>
